<svg width="200" height="131" viewBox="0 0 200 131" fill="none" xmlns="http://www.w3.org/2000/svg">
<g filter="url(#filter0_d_0_55)">
<rect x="40" y="18.3616" width="120" height="50.4081" rx="5" fill="#FF7A50"/>
</g>
<path d="M73.6316 50.3675C72.6356 50.3675 71.7716 50.2115 71.0396 49.8995C70.3196 49.5875 69.7676 49.1795 69.3836 48.6755C68.9996 48.1595 68.7956 47.6075 68.7716 47.0195C68.7716 46.9235 68.8076 46.8395 68.8796 46.7675C68.9636 46.6835 69.0596 46.6415 69.1676 46.6415H70.0856C70.3136 46.6415 70.4696 46.7615 70.5536 47.0015C70.6616 47.5055 70.9676 47.9375 71.4716 48.2975C71.9876 48.6575 72.7076 48.8375 73.6316 48.8375C74.6276 48.8375 75.3776 48.6635 75.8816 48.3155C76.3856 47.9555 76.6376 47.4575 76.6376 46.8215C76.6376 46.4135 76.5116 46.0835 76.2596 45.8315C76.0196 45.5795 75.6596 45.3575 75.1796 45.1655C74.6996 44.9735 73.9796 44.7335 73.0196 44.4455C72.0836 44.1815 71.3396 43.8995 70.7876 43.5995C70.2356 43.2995 69.8216 42.9275 69.5456 42.4835C69.2696 42.0395 69.1316 41.4815 69.1316 40.8095C69.1316 40.1615 69.3056 39.5795 69.6536 39.0635C70.0136 38.5475 70.5236 38.1455 71.1836 37.8575C71.8436 37.5575 72.6296 37.4075 73.5416 37.4075C74.4776 37.4075 75.2816 37.5755 75.9536 37.9115C76.6256 38.2355 77.1356 38.6495 77.4836 39.1535C77.8316 39.6575 78.0176 40.1615 78.0416 40.6655C78.0416 40.7615 78.0056 40.8455 77.9336 40.9175C77.8736 40.9895 77.7836 41.0255 77.6636 41.0255H76.7096C76.4576 41.0255 76.3016 40.9115 76.2416 40.6835C76.1696 40.1795 75.8876 39.7655 75.3956 39.4415C74.9036 39.1055 74.2856 38.9375 73.5416 38.9375C72.7256 38.9375 72.0836 39.0935 71.6156 39.4055C71.1476 39.7175 70.9136 40.1795 70.9136 40.7915C70.9136 41.1995 71.0216 41.5355 71.2376 41.7995C71.4656 42.0635 71.8076 42.2975 72.2636 42.5015C72.7196 42.6935 73.3856 42.9155 74.2616 43.1675C75.2816 43.4435 76.0856 43.7315 76.6736 44.0315C77.2616 44.3195 77.6996 44.6855 77.9876 45.1295C78.2756 45.5615 78.4196 46.1135 78.4196 46.7855C78.4196 47.9015 77.9876 48.7775 77.1236 49.4135C76.2596 50.0495 75.0956 50.3675 73.6316 50.3675ZM80.8149 39.0815C80.6949 39.0815 80.5929 39.0455 80.5089 38.9735C80.4369 38.8895 80.4009 38.7875 80.4009 38.6675V37.6955C80.4009 37.5755 80.4369 37.4735 80.5089 37.3895C80.5929 37.3055 80.6949 37.2635 80.8149 37.2635H81.9489C82.0689 37.2635 82.1709 37.3055 82.2549 37.3895C82.3389 37.4735 82.3809 37.5755 82.3809 37.6955V38.6675C82.3809 38.7875 82.3389 38.8895 82.2549 38.9735C82.1709 39.0455 82.0689 39.0815 81.9489 39.0815H80.8149ZM80.9589 50.1875C80.8389 50.1875 80.7369 50.1515 80.6529 50.0795C80.5809 49.9955 80.5449 49.8935 80.5449 49.7735V41.2415C80.5449 41.1215 80.5809 41.0255 80.6529 40.9535C80.7369 40.8695 80.8389 40.8275 80.9589 40.8275H81.8229C81.9429 40.8275 82.0389 40.8695 82.1109 40.9535C82.1949 41.0255 82.2369 41.1215 82.2369 41.2415V49.7735C82.2369 49.8935 82.1949 49.9955 82.1109 50.0795C82.0389 50.1515 81.9429 50.1875 81.8229 50.1875H80.9589ZM88.7383 54.1475C87.7543 54.1475 86.9623 53.9795 86.3623 53.6435C85.7623 53.3195 85.3363 52.9475 85.0843 52.5275C84.8323 52.1075 84.6943 51.7295 84.6703 51.3935C84.6583 51.2735 84.6943 51.1715 84.7783 51.0875C84.8743 51.0035 84.9763 50.9615 85.0843 50.9615H85.9483C86.0563 50.9615 86.1463 50.9855 86.2183 51.0335C86.2903 51.0935 86.3503 51.1955 86.3983 51.3395C86.5423 51.7235 86.7763 52.0535 87.1003 52.3295C87.4363 52.6175 87.9523 52.7615 88.6483 52.7615C89.5363 52.7615 90.1903 52.5695 90.6103 52.1855C91.0303 51.8135 91.2403 51.1475 91.2403 50.1875V48.9635C90.9283 49.3595 90.5323 49.6775 90.0523 49.9175C89.5723 50.1455 89.0023 50.2595 88.3423 50.2595C87.0703 50.2595 86.1163 49.8575 85.4803 49.0535C84.8563 48.2375 84.5263 47.2055 84.4903 45.9575L84.4723 45.4535L84.4903 44.9675C84.5263 43.7315 84.8623 42.7055 85.4983 41.8895C86.1343 41.0615 87.0823 40.6475 88.3423 40.6475C89.6023 40.6475 90.5863 41.1095 91.2943 42.0335V41.2595C91.2943 41.1395 91.3303 41.0375 91.4023 40.9535C91.4863 40.8695 91.5883 40.8275 91.7083 40.8275H92.5363C92.6563 40.8275 92.7583 40.8695 92.8423 40.9535C92.9263 41.0375 92.9683 41.1395 92.9683 41.2595V49.9895C92.9683 52.7615 91.5583 54.1475 88.7383 54.1475ZM88.7023 48.8195C89.5183 48.8195 90.1363 48.5495 90.5563 48.0095C90.9763 47.4695 91.2043 46.8275 91.2403 46.0835C91.2523 45.9755 91.2583 45.7655 91.2583 45.4535C91.2583 45.1535 91.2523 44.9495 91.2403 44.8415C91.2043 44.0975 90.9763 43.4555 90.5563 42.9155C90.1483 42.3755 89.5303 42.1055 88.7023 42.1055C87.8503 42.1055 87.2323 42.3695 86.8483 42.8975C86.4643 43.4255 86.2543 44.1215 86.2183 44.9855L86.2003 45.4535L86.2183 45.9395C86.2543 46.7915 86.4643 47.4875 86.8483 48.0275C87.2323 48.5555 87.8503 48.8195 88.7023 48.8195ZM96.0585 50.1875C95.9385 50.1875 95.8365 50.1515 95.7525 50.0795C95.6805 49.9955 95.6445 49.8935 95.6445 49.7735V41.2415C95.6445 41.1215 95.6805 41.0255 95.7525 40.9535C95.8365 40.8695 95.9385 40.8275 96.0585 40.8275H96.9045C97.0245 40.8275 97.1205 40.8695 97.1925 40.9535C97.2765 41.0255 97.3185 41.1215 97.3185 41.2415V42.0335C97.6665 41.5895 98.0745 41.2475 98.5425 41.0075C99.0225 40.7675 99.6165 40.6475 100.325 40.6475C101.477 40.6475 102.371 41.0195 103.007 41.7635C103.655 42.4955 103.979 43.4735 103.979 44.6975V49.7735C103.979 49.8935 103.937 49.9955 103.853 50.0795C103.781 50.1515 103.685 50.1875 103.564 50.1875H102.665C102.545 50.1875 102.443 50.1515 102.359 50.0795C102.287 49.9955 102.251 49.8935 102.251 49.7735V44.7875C102.251 43.9355 102.041 43.2755 101.621 42.8075C101.213 42.3395 100.619 42.1055 99.8385 42.1055C99.0825 42.1055 98.4825 42.3455 98.0385 42.8255C97.5945 43.2935 97.3725 43.9475 97.3725 44.7875V49.7735C97.3725 49.8935 97.3305 49.9955 97.2465 50.0795C97.1745 50.1515 97.0785 50.1875 96.9585 50.1875H96.0585ZM115.959 50.3675C114.411 50.3675 113.211 49.9535 112.359 49.1255C111.519 48.2855 111.099 47.0195 111.099 45.3275V38.0195C111.099 37.8875 111.135 37.7855 111.207 37.7135C111.291 37.6295 111.393 37.5875 111.513 37.5875H112.431C112.563 37.5875 112.665 37.6295 112.737 37.7135C112.821 37.7855 112.863 37.8875 112.863 38.0195V45.3635C112.863 46.5155 113.133 47.3795 113.673 47.9555C114.213 48.5315 114.975 48.8195 115.959 48.8195C116.943 48.8195 117.705 48.5315 118.245 47.9555C118.785 47.3795 119.055 46.5155 119.055 45.3635V38.0195C119.055 37.8875 119.091 37.7855 119.163 37.7135C119.247 37.6295 119.349 37.5875 119.469 37.5875H120.405C120.525 37.5875 120.621 37.6295 120.693 37.7135C120.777 37.7975 120.819 37.8995 120.819 38.0195V45.3275C120.819 47.0195 120.393 48.2855 119.541 49.1255C118.701 49.9535 117.507 50.3675 115.959 50.3675ZM124.026 53.6075C123.906 53.6075 123.804 53.5655 123.72 53.4815C123.648 53.4095 123.612 53.3135 123.612 53.1935V41.2415C123.612 41.1215 123.648 41.0255 123.72 40.9535C123.804 40.8695 123.906 40.8275 124.026 40.8275H124.854C124.974 40.8275 125.07 40.8695 125.142 40.9535C125.226 41.0255 125.268 41.1215 125.268 41.2415V42.0335C125.94 41.1095 126.924 40.6475 128.22 40.6475C129.48 40.6475 130.422 41.0435 131.046 41.8355C131.682 42.6275 132.024 43.6475 132.072 44.8955C132.084 45.0275 132.09 45.2315 132.09 45.5075C132.09 45.7835 132.084 45.9875 132.072 46.1195C132.024 47.3555 131.682 48.3755 131.046 49.1795C130.41 49.9715 129.468 50.3675 128.22 50.3675C126.972 50.3675 126 49.9175 125.304 49.0175V53.1935C125.304 53.3135 125.268 53.4095 125.196 53.4815C125.124 53.5655 125.028 53.6075 124.908 53.6075H124.026ZM127.842 48.9095C128.694 48.9095 129.312 48.6455 129.696 48.1175C130.092 47.5895 130.308 46.8935 130.344 46.0295C130.356 45.9095 130.362 45.7355 130.362 45.5075C130.362 43.2395 129.522 42.1055 127.842 42.1055C127.014 42.1055 126.39 42.3815 125.97 42.9335C125.562 43.4735 125.34 44.1215 125.304 44.8775L125.286 45.5615L125.304 46.2635C125.328 46.9715 125.556 47.5895 125.988 48.1175C126.42 48.6455 127.038 48.9095 127.842 48.9095Z" fill="white"/>
<defs>
<filter id="filter0_d_0_55" x="0" y="0.361572" width="200" height="130.408" filterUnits="userSpaceOnUse" color-interpolation-filters="sRGB">
<feFlood flood-opacity="0" result="BackgroundImageFix"/>
<feColorMatrix in="SourceAlpha" type="matrix" values="0 0 0 0 0 0 0 0 0 0 0 0 0 0 0 0 0 0 127 0" result="hardAlpha"/>
<feOffset dy="22"/>
<feGaussianBlur stdDeviation="20"/>
<feColorMatrix type="matrix" values="0 0 0 0 1 0 0 0 0 0.407843 0 0 0 0 0.219608 0 0 0 0.19 0"/>
<feBlend mode="normal" in2="BackgroundImageFix" result="effect1_dropShadow_0_55"/>
<feBlend mode="normal" in="SourceGraphic" in2="effect1_dropShadow_0_55" result="shape"/>
</filter>
</defs>
</svg>
